<svg width="188" height="200" viewBox="0 0 188 200" fill="none"
  xmlns="http://www.w3.org/2000/svg">
  <mask id="mask0" mask-type="alpha" maskUnits="userSpaceOnUse" x="8" y="29" width="171" height="171">
    <path d="M93.75 199.864C140.82 199.864 178.977 161.706 178.977 114.636C178.977 67.5666 140.82 29.4091 93.75 29.4091C46.6803 29.4091 8.52274 67.5666 8.52274 114.636C8.52274 161.706 46.6803 199.864 93.75 199.864Z" fill="white"/>
  </mask>
  <g mask="url(#mask0)">
    <path d="M93.75 199.864C140.82 199.864 178.977 161.706 178.977 114.636C178.977 67.5666 140.82 29.4091 93.75 29.4091C46.6803 29.4091 8.52274 67.5666 8.52274 114.636C8.52274 161.706 46.6803 199.864 93.75 199.864Z" fill="white"/>
    <path d="M178.977 29.4091H8.52274V199.864H178.977V29.4091Z" fill="#fff"/>
  </g>
  <mask id="mask1" mask-type="alpha" maskUnits="userSpaceOnUse" x="0" y="1" width="188" height="199">
    <path d="M8.52273 114.636C8.52273 161.706 46.6803 199.864 93.75 199.864C140.82 199.864 178.977 161.706 178.977 114.636H187.5V1H0V114.636H8.52273Z" fill="white"/>
  </mask>
  <g mask="url(#mask1)">
    <mask id="mask2" mask-type="alpha" maskUnits="userSpaceOnUse" x="22" y="26" width="143" height="174">
      <path d="M110.795 129.275V142.335H113.636C141.878 142.335 164.773 165.23 164.773 193.472V199.864H22.7273V193.472C22.7273 165.23 45.6218 142.335 73.8636 142.335H76.7045V129.275C64.4621 123.459 55.6621 111.573 54.194 97.5065C50.057 96.9217 46.875 93.3665 46.875 89.0682V79.125C46.875 74.902 49.9464 71.3963 53.9773 70.7201V66.3409C53.9773 44.375 71.7841 26.5682 93.75 26.5682C115.716 26.5682 133.523 44.375 133.523 66.3409V70.7201C137.554 71.3963 140.625 74.902 140.625 79.125V89.0682C140.625 93.3665 137.443 96.9217 133.306 97.5065C131.838 111.573 123.038 123.459 110.795 129.275Z" fill="white"/>
    </mask>
    <g mask="url(#mask2)">
      <path d="M110.795 129.275V142.335H113.636C141.878 142.335 164.773 165.23 164.773 193.472V199.864H22.7273V193.472C22.7273 165.23 45.6218 142.335 73.8636 142.335H76.7045V129.275C64.4621 123.459 55.6621 111.573 54.194 97.5065C50.057 96.9217 46.875 93.3665 46.875 89.0682V79.125C46.875 74.902 49.9464 71.3963 53.9773 70.7201V66.3409C53.9773 44.375 71.7841 26.5682 93.75 26.5682C115.716 26.5682 133.523 44.375 133.523 66.3409V70.7201C137.554 71.3963 140.625 74.902 140.625 79.125V89.0682C140.625 93.3665 137.443 96.9217 133.306 97.5065C131.838 111.573 123.038 123.459 110.795 129.275Z" fill="#D0C6AC"/>
      <path d="M187.5 26.5682H0V199.864H187.5V26.5682Z" fill="#FFDBB4"/>
      <path fill-rule="evenodd" clip-rule="evenodd" d="M133.523 82.6761V99.0113C133.523 120.977 115.716 138.784 93.75 138.784C71.7841 138.784 53.9773 120.977 53.9773 99.0113V82.6761V93.3295C53.9773 115.295 71.7841 133.102 93.75 133.102C115.716 133.102 133.523 115.295 133.523 93.3295V82.6761Z" fill="black" fill-opacity="0.1"/>
    </g>
    <mask id="mask3" mask-type="alpha" maskUnits="userSpaceOnUse" x="22" y="131" width="143" height="69">
      <path fill-rule="evenodd" clip-rule="evenodd" d="M76.7045 131.022C63.9782 132.446 54.176 136.335 53.9802 146.344C35.6154 154.102 22.7273 172.282 22.7273 193.471V199.864H164.773V193.471C164.773 172.282 151.885 154.102 133.52 146.344C133.324 136.335 123.522 132.446 110.795 131.022V144.466C110.795 153.88 103.164 161.511 93.75 161.511C84.336 161.511 76.7045 153.88 76.7045 144.466V131.022Z" fill="white"/>
    </mask>
    <g mask="url(#mask3)">
      <path fill-rule="evenodd" clip-rule="evenodd" d="M76.7045 131.022C63.9782 132.446 54.176 136.335 53.9802 146.344C35.6154 154.102 22.7273 172.282 22.7273 193.471V199.864H164.773V193.471C164.773 172.282 151.885 154.102 133.52 146.344C133.324 136.335 123.522 132.446 110.795 131.022V144.466C110.795 153.88 103.164 161.511 93.75 161.511C84.336 161.511 76.7045 153.88 76.7045 144.466V131.022Z" fill="#B7C1DB"/>
      <path d="M187.5 121.739H0V199.864H187.5V121.739Z" fill="#8E3AF8"/>
      <path fill-rule="evenodd" clip-rule="evenodd" d="M72.4432 165.587V199.864H67.4716V163.039C69.0368 163.969 70.7008 164.822 72.4432 165.587ZM120.028 163.039V191.696C120.028 193.069 118.915 194.182 117.543 194.182C116.17 194.182 115.057 193.069 115.057 191.696V165.587C116.799 164.822 118.463 163.969 120.028 163.039Z" fill="#F4F4F4"/>
      <path fill-rule="evenodd" clip-rule="evenodd" d="M64.6024 130.776C53.9129 132.798 46.5199 136.826 46.5199 144.684C46.5199 158.685 69.9842 170.034 93.75 170.034C117.516 170.034 140.98 158.685 140.98 144.684C140.98 136.826 133.587 132.798 122.898 130.776C129.35 133.155 133.523 137.155 133.523 143.81C133.523 158.293 113.763 170.034 93.75 170.034C73.7367 170.034 53.9773 158.293 53.9773 143.81C53.9773 137.155 58.1499 133.155 64.6024 130.776Z" fill="black" fill-opacity="0.16"/>
    </g>
    <mask id="mask4" mask-type="alpha" maskUnits="userSpaceOnUse" x="80" y="105" width="28" height="14">
      <path fill-rule="evenodd" clip-rule="evenodd" d="M80.3394 106.915C81.0907 113.656 86.8082 118.898 93.75 118.898C100.713 118.898 106.445 113.624 107.167 106.852C107.226 106.307 106.617 105.403 105.854 105.403C95.2761 105.403 87.1718 105.403 81.7378 105.403C80.9706 105.403 80.2642 106.24 80.3394 106.915Z" fill="white"/>
    </mask>
    <g mask="url(#mask4)">
      <path fill-rule="evenodd" clip-rule="evenodd" d="M80.3394 106.915C81.0907 113.656 86.8082 118.898 93.75 118.898C100.713 118.898 106.445 113.624 107.167 106.852C107.226 106.307 106.617 105.403 105.854 105.403C95.2761 105.403 87.1718 105.403 81.7378 105.403C80.9706 105.403 80.2642 106.24 80.3394 106.915Z" fill="black" fill-opacity="0.7"/>
      <path d="M101.562 97.5909H86.6477C84.6865 97.5909 83.0966 99.1808 83.0966 101.142V105.403C83.0966 107.365 84.6865 108.955 86.6477 108.955H101.562C103.524 108.955 105.114 107.365 105.114 105.403V101.142C105.114 99.1808 103.524 97.5909 101.562 97.5909Z" fill="white"/>
      <path d="M90.1988 128.841C94.5136 128.841 98.0113 125.343 98.0113 121.028C98.0113 116.714 94.5136 113.216 90.1988 113.216C85.8841 113.216 82.3864 116.714 82.3864 121.028C82.3864 125.343 85.8841 128.841 90.1988 128.841Z" fill="#FF4F6D"/>
      <path d="M97.3011 128.841C101.616 128.841 105.114 125.343 105.114 121.028C105.114 116.714 101.616 113.216 97.3011 113.216C92.9864 113.216 89.4886 116.714 89.4886 121.028C89.4886 125.343 92.9864 128.841 97.3011 128.841Z" fill="#FF4F6D"/>
    </g>
    <path fill-rule="evenodd" clip-rule="evenodd" d="M85.2273 93.3295C85.2273 96.4675 89.043 99.0113 93.75 99.0113C98.457 99.0113 102.273 96.4675 102.273 93.3295" fill="black" fill-opacity="0.16"/>
    <path fill-rule="evenodd" clip-rule="evenodd" d="M65.4547 80.8632C66.7661 78.1652 69.719 76.2841 73.1517 76.2841C76.5722 76.2841 79.5164 78.1519 80.8348 80.8346C81.2264 81.6316 80.6691 82.2838 80.107 81.8005C78.3661 80.3039 75.894 79.3692 73.1517 79.3692C70.4952 79.3692 68.0922 80.2463 66.3619 81.6617C65.7293 82.1792 65.0711 81.6523 65.4547 80.8632Z" fill="black" fill-opacity="0.6"/>
    <path fill-rule="evenodd" clip-rule="evenodd" d="M106.648 80.8632C107.959 78.1652 110.912 76.2841 114.345 76.2841C117.765 76.2841 120.71 78.1519 122.028 80.8346C122.42 81.6316 121.862 82.2838 121.3 81.8005C119.559 80.3039 117.087 79.3692 114.345 79.3692C111.688 79.3692 109.285 80.2463 107.555 81.6617C106.922 82.1792 106.264 81.6523 106.648 80.8632Z" fill="black" fill-opacity="0.6"/>
    <path fill-rule="evenodd" clip-rule="evenodd" d="M72.8319 63.6054C68.7076 63.7959 62.0399 66.7928 62.2117 70.9518C62.2174 71.088 62.4173 71.1477 62.515 71.043C64.4716 68.9412 78.364 66.8174 83.2572 67.9429C83.705 68.046 84.0452 67.6042 83.7616 67.2851C81.3311 64.552 76.5269 63.4311 72.8319 63.6054Z" fill="black" fill-opacity="0.6"/>
    <path fill-rule="evenodd" clip-rule="evenodd" d="M115.378 63.6054C119.503 63.7959 126.17 66.7928 125.998 70.9518C125.993 71.088 125.793 71.1477 125.695 71.043C123.739 68.9412 109.846 66.8174 104.953 67.9429C104.505 68.046 104.165 67.6042 104.449 67.2851C106.879 64.552 111.683 63.4311 115.378 63.6054Z" fill="black" fill-opacity="0.6"/>
    <mask id="mask5" mask-type="alpha" maskUnits="userSpaceOnUse" x="0" y="1" width="188" height="199">
      <path d="M187.5 1H0V199.864H187.5V1Z" fill="white"/>
    </mask>
    <g mask="url(#mask5)">
      <mask id="mask6" mask-type="alpha" maskUnits="userSpaceOnUse" x="10" y="10" width="167" height="190">
        <path fill-rule="evenodd" clip-rule="evenodd" d="M168.597 140.067C164.781 144.124 160.972 146.687 161.102 150.858C161.327 159.302 192.073 184.275 164.773 199.864H22.0208C-5.27966 184.275 25.4668 159.302 25.6918 150.858C25.8217 146.687 22.0128 144.124 18.1964 140.067C14.3799 136.01 10.5559 130.461 10.6553 120.318C11.3242 99.7014 32.9344 101.56 32.8144 87.6477C32.9344 74.1529 24.7258 68.5857 32.8144 42.9034C41.0793 17.008 62.4408 10.7785 93.0417 10.2443V10.2329C93.1602 10.2347 93.2785 10.2365 93.3968 10.2384C93.515 10.2365 93.6334 10.2347 93.7519 10.2329V10.2443C124.353 10.7785 145.714 17.008 153.979 42.9034C162.068 68.5857 153.859 74.1529 153.979 87.6477C153.859 101.56 175.469 99.7014 176.138 120.318C176.238 130.461 172.414 136.01 168.597 140.067ZM140.543 77.9353C125.259 69.7055 112.138 57.9206 103.584 44.5386C90.7414 62.7356 65.007 66.0105 47.0342 77.4772C46.9297 78.0104 46.875 78.5613 46.875 79.125V88.3579C46.875 92.6325 50.0219 96.1721 54.1254 96.7863C55.3635 111.167 64.2537 123.36 76.7045 129.275V142.335H73.8636C45.6218 142.335 22.7273 165.23 22.7273 193.472V199.864H164.773V193.472C164.773 165.23 141.878 142.335 113.636 142.335H110.795V129.275C123.246 123.36 132.136 111.167 133.375 96.7863C137.478 96.1721 140.625 92.6325 140.625 88.3579V79.125C140.625 78.7213 140.597 78.3241 140.543 77.9353Z" fill="white"/>
      </mask>
      <g mask="url(#mask6)">
        <path fill-rule="evenodd" clip-rule="evenodd" d="M168.597 140.067C164.781 144.124 160.972 146.687 161.102 150.858C161.327 159.302 192.073 184.275 164.773 199.864H22.0208C-5.27966 184.275 25.4668 159.302 25.6918 150.858C25.8217 146.687 22.0128 144.124 18.1964 140.067C14.3799 136.01 10.5559 130.461 10.6553 120.318C11.3242 99.7014 32.9344 101.56 32.8144 87.6477C32.9344 74.1529 24.7258 68.5857 32.8144 42.9034C41.0793 17.008 62.4408 10.7785 93.0417 10.2443V10.2329C93.1602 10.2347 93.2785 10.2365 93.3968 10.2384C93.515 10.2365 93.6334 10.2347 93.7519 10.2329V10.2443C124.353 10.7785 145.714 17.008 153.979 42.9034C162.068 68.5857 153.859 74.1529 153.979 87.6477C153.859 101.56 175.469 99.7014 176.138 120.318C176.238 130.461 172.414 136.01 168.597 140.067ZM140.543 77.9353C125.259 69.7055 112.138 57.9206 103.584 44.5386C90.7414 62.7356 65.007 66.0105 47.0342 77.4772C46.9297 78.0104 46.875 78.5613 46.875 79.125V88.3579C46.875 92.6325 50.0219 96.1721 54.1254 96.7863C55.3635 111.167 64.2537 123.36 76.7045 129.275V142.335H73.8636C45.6218 142.335 22.7273 165.23 22.7273 193.472V199.864H164.773V193.472C164.773 165.23 141.878 142.335 113.636 142.335H110.795V129.275C123.246 123.36 132.136 111.167 133.375 96.7863C137.478 96.1721 140.625 92.6325 140.625 88.3579V79.125C140.625 78.7213 140.597 78.3241 140.543 77.9353Z" fill="#314756"/>
        <path d="M198.153 10.2329H10.6534V209.097H198.153V10.2329Z" fill="#4A312C"/>
      </g>
      <mask id="mask7" mask-type="alpha" maskUnits="userSpaceOnUse" x="10" y="10" width="167" height="190">
        <path fill-rule="evenodd" clip-rule="evenodd" d="M168.597 140.067C164.781 144.124 160.972 146.687 161.102 150.858C161.327 159.302 192.073 184.275 164.773 199.864H22.0208C-5.27966 184.275 25.4668 159.302 25.6918 150.858C25.8217 146.687 22.0128 144.124 18.1964 140.067C14.3799 136.01 10.5559 130.461 10.6553 120.318C11.3242 99.7014 32.9344 101.56 32.8144 87.6477C32.9344 74.1529 24.7258 68.5857 32.8144 42.9034C41.0793 17.008 62.4408 10.7785 93.0417 10.2443V10.2329C93.1602 10.2347 93.2785 10.2365 93.3968 10.2384C93.515 10.2365 93.6334 10.2347 93.7519 10.2329V10.2443C124.353 10.7785 145.714 17.008 153.979 42.9034C162.068 68.5857 153.859 74.1529 153.979 87.6477C153.859 101.56 175.469 99.7014 176.138 120.318C176.238 130.461 172.414 136.01 168.597 140.067ZM76.7045 142.335H73.8636C45.6218 142.335 22.7273 165.23 22.7273 193.472V199.864H164.773V193.472C164.773 165.23 141.878 142.335 113.636 142.335H110.795V109.665H76.7045V142.335Z" fill="white"/>
      </mask>
      <g mask="url(#mask7)">
        <path fill-rule="evenodd" clip-rule="evenodd" d="M32.0304 91.9495C30.3445 94.0986 28.075 97.256 27.9558 97.0183C29.2859 95.3257 30.0957 93.3378 30.0717 90.7984C30.1972 77.9424 21.6169 72.6388 30.0717 48.1723C30.5466 46.8161 31.326 45.5344 32.3763 44.3273C25.0308 68.7974 32.9322 74.406 32.8144 87.6477C32.8284 89.2776 32.5443 90.691 32.0304 91.9495ZM154.417 44.3273C155.468 45.5344 156.247 46.8161 156.722 48.1723C163.936 69.049 158.747 75.9735 157.148 85.543C156.935 86.1145 157.099 86.7882 156.875 87.3658C135.09 79.9385 115.476 66.0281 104.045 49.7301C87.8629 70.6277 52.0983 70.8674 34.5694 89.0228C34.8442 88.6362 35.1052 88.2762 35.3398 87.9647C51.3452 66.7155 87.5333 67.2814 103.584 44.5386C114.52 61.6466 133.284 76.2482 154.126 84.0446C154.34 83.4383 154.183 82.7311 154.386 82.1312C155.883 72.307 160.664 65.1384 154.417 44.3273Z" fill="black" fill-opacity="0.16"/>
      </g>
      <path fill-rule="evenodd" clip-rule="evenodd" d="M35.3398 87.9647C51.3452 66.7155 87.5333 67.2813 103.584 44.5386C114.52 61.6466 133.284 76.2482 154.126 84.0446C154.34 83.4383 154.183 82.7311 154.386 82.1312C155.917 72.0862 160.881 64.8176 153.979 42.9034C145.714 17.008 124.353 10.7785 93.7519 10.2443C93.2785 10.2365 93.1602 10.2347 93.0417 10.2329C62.4408 10.7785 41.0793 17.008 32.8144 42.9034C24.7258 68.5857 32.9344 74.1529 32.8144 87.6477C32.8374 90.3134 32.0626 92.4001 30.7902 94.1768C30.9205 94.4621 33.7402 90.0884 35.3398 87.9647Z" fill="white" fill-opacity="0.1"/>
      <g filter="url(#filter0_d)">
        <path d="M71.733 95.4602H69.7743C59.8826 95.4602 53.9773 90.017 53.9773 80.9005C53.9773 73.5334 55.2678 66.3409 70.6889 66.3409H72.777C88.1982 66.3409 89.4886 73.5334 89.4886 80.9005C89.4886 89.472 82.1884 95.4602 71.733 95.4602ZM70.5862 70.6022C56.8182 70.6022 56.8182 75.4609 56.8182 81.6119C56.8182 86.6335 59.0314 92.6193 69.5816 92.6193H71.733C80.5148 92.6193 86.6477 88.093 86.6477 81.6119C86.6477 75.4609 86.6477 70.6022 72.8797 70.6022H70.5862Z" fill="#252C2F"/>
        <path d="M115.767 95.4602H113.808C103.917 95.4602 98.0114 90.017 98.0114 80.9005C98.0114 73.5334 99.3018 66.3409 114.723 66.3409H116.811C132.232 66.3409 133.523 73.5334 133.523 80.9005C133.523 89.472 126.222 95.4602 115.767 95.4602ZM114.62 70.6022C100.852 70.6022 100.852 75.4609 100.852 81.6119C100.852 86.6335 103.068 92.6193 113.616 92.6193H115.767C124.549 92.6193 130.682 88.093 130.682 81.6119C130.682 75.4609 130.682 70.6022 116.914 70.6022H114.62Z" fill="#252C2F"/>
        <path d="M49.6836 70.44C50.1747 69.9604 55.5466 66.3409 70.6676 66.3409C83.3461 66.3409 86.03 67.6567 90.0925 69.6448L90.3899 69.7915C90.6723 69.8913 92.1167 70.382 93.8062 70.4359C95.3454 70.3699 96.662 69.9527 97.0467 69.819C101.684 67.564 106.222 66.3409 116.832 66.3409C131.953 66.3409 137.325 69.9604 137.816 70.44C138.977 70.44 139.915 71.3562 139.915 72.4896V74.5391C139.915 75.6725 138.977 76.5887 137.816 76.5887C137.816 76.5887 132.915 76.5887 132.915 78.6383C132.915 80.6878 131.521 75.6725 131.521 74.5391V72.5429C128.962 71.5635 124.381 69.7402 116.832 69.7402C108.422 69.7402 104.234 71.2315 100.641 72.7124L100.681 72.8093L100.679 74.22L99.1045 78.0196L97.1595 77.2506C96.9857 77.1819 96.6109 77.0585 96.0912 76.9303C94.6423 76.5729 93.1526 76.4642 91.8353 76.7346C91.352 76.8338 90.9036 76.9827 90.4921 77.1837L88.6154 78.1007L86.7377 74.4348L86.8211 72.8052L86.8784 72.6668C83.7799 71.2229 80.9228 69.7402 70.6676 69.7402C63.1194 69.7402 58.5385 71.5628 55.9788 72.5422V74.5391C55.9788 75.6725 53.8804 80.6878 53.8804 78.6383C53.8804 76.5887 49.6836 76.5887 49.6836 76.5887C48.5253 76.5887 47.5852 75.6725 47.5852 74.5391V72.4896C47.5852 71.3562 48.5253 70.44 49.6836 70.44Z" fill="#252C2F"/>
      </g>
    </g>
  </g>
  <defs>
    <filter id="filter0_d" x="40.7671" y="62.9318" width="105.966" height="42.7557" filterUnits="userSpaceOnUse" color-interpolation-filters="sRGB">
      <feFlood flood-opacity="0" result="BackgroundImageFix"/>
      <feColorMatrix in="SourceAlpha" type="matrix" values="0 0 0 0 0 0 0 0 0 0 0 0 0 0 0 0 0 0 127 0"/>
      <feOffset dy="3.40909"/>
      <feGaussianBlur stdDeviation="3.40909"/>
      <feColorMatrix type="matrix" values="0 0 0 0 0 0 0 0 0 0 0 0 0 0 0 0 0 0 0.2 0"/>
      <feBlend mode="normal" in2="BackgroundImageFix" result="effect1_dropShadow"/>
      <feBlend mode="normal" in="SourceGraphic" in2="effect1_dropShadow" result="shape"/>
    </filter>
  </defs>
</svg>
